ISO-10303-21;
HEADER;
FILE_DESCRIPTION(('FreeCAD Model'),'2;1');
FILE_NAME('Open CASCADE Shape Model','2026-09-13T16:18:36',('FreeCAD'),(
    'FreeCAD'),'Open CASCADE STEP processor 7.8','FreeCAD','Unknown');
FILE_SCHEMA(('AUTOMOTIVE_DESIGN { 1 0 10303 214 1 1 1 1 }'));
ENDSEC;
DATA;
#1 = APPLICATION_PROTOCOL_DEFINITION('international standard',
  'automotive_design',2000,#2);
#2 = APPLICATION_CONTEXT(
  'core data for automotive mechanical design processes');
#3 = SHAPE_DEFINITION_REPRESENTATION(#4,#10);
#4 = PRODUCT_DEFINITION_SHAPE('','',#5);
#5 = PRODUCT_DEFINITION('design','',#6,#9);
#6 = PRODUCT_DEFINITION_FORMATION('','',#7);
#7 = PRODUCT('Open CASCADE STEP translator 7.8 1',
  'Open CASCADE STEP translator 7.8 1','',(#8));
#8 = PRODUCT_CONTEXT('',#2,'mechanical');
#9 = PRODUCT_DEFINITION_CONTEXT('part definition',#2,'design');
#10 = ADVANCED_BREP_SHAPE_REPRESENTATION('',(#11,#15),#57);
#11 = AXIS2_PLACEMENT_3D('',#12,#13,#14);
#12 = CARTESIAN_POINT('',(0.,0.,0.));
#13 = DIRECTION('',(0.,0.,1.));
#14 = DIRECTION('',(1.,0.,-0.));
#15 = MANIFOLD_SOLID_BREP('',#16);
#16 = CLOSED_SHELL('',(#17,#48));
#17 = ADVANCED_FACE('',(#18),#39,.F.);
#18 = FACE_BOUND('',#19,.F.);
#19 = EDGE_LOOP('',(#20,#29,#38));
#20 = ORIENTED_EDGE('',*,*,#21,.T.);
#21 = EDGE_CURVE('',#22,#22,#24,.T.);
#22 = VERTEX_POINT('',#23);
#23 = CARTESIAN_POINT('',(300.,300.,-5.684341886081E-14));
#24 = CIRCLE('',#25,300.);
#25 = AXIS2_PLACEMENT_3D('',#26,#27,#28);
#26 = CARTESIAN_POINT('',(300.,2.557953848736E-13,0.));
#27 = DIRECTION('',(1.,-5.052100329661E-17,-3.11416609826E-17));
#28 = DIRECTION('',(5.052100329661E-17,1.,-7.816669123751E-17));
#29 = ORIENTED_EDGE('',*,*,#30,.T.);
#30 = EDGE_CURVE('',#22,#31,#33,.T.);
#31 = VERTEX_POINT('',#32);
#32 = CARTESIAN_POINT('',(-300.,2.557953848736E-13,-1.136868377216E-13)
  );
#33 = ELLIPSE('',#34,600.,300.);
#34 = AXIS2_PLACEMENT_3D('',#35,#36,#37);
#35 = CARTESIAN_POINT('',(300.,2.557953848736E-13,0.));
#36 = DIRECTION('',(4.808400380259E-17,7.816669123751E-17,1.));
#37 = DIRECTION('',(1.,-3.109536390487E-16,-4.808400380259E-17));
#38 = ORIENTED_EDGE('',*,*,#30,.F.);
#39 = SURFACE_OF_REVOLUTION('',#40,#45);
#40 = ELLIPSE('',#41,600.,300.);
#41 = AXIS2_PLACEMENT_3D('',#42,#43,#44);
#42 = CARTESIAN_POINT('',(300.,2.557953848736E-13,0.));
#43 = DIRECTION('',(4.808400380259E-17,7.816669123751E-17,1.));
#44 = DIRECTION('',(1.,-3.109536390487E-16,-4.808400380259E-17));
#45 = AXIS1_PLACEMENT('',#46,#47);
#46 = CARTESIAN_POINT('',(300.,2.557953848736E-13,0.));
#47 = DIRECTION('',(1.,-3.109536390487E-16,-4.808400380259E-17));
#48 = ADVANCED_FACE('',(#49),#52,.T.);
#49 = FACE_BOUND('',#50,.F.);
#50 = EDGE_LOOP('',(#51));
#51 = ORIENTED_EDGE('',*,*,#21,.F.);
#52 = PLANE('',#53);
#53 = AXIS2_PLACEMENT_3D('',#54,#55,#56);
#54 = CARTESIAN_POINT('',(300.,2.557953848736E-13,0.));
#55 = DIRECTION('',(1.,-3.109536390487E-16,-4.808400380259E-17));
#56 = DIRECTION('',(5.052100329661E-17,1.,-7.816669123751E-17));
#57 = ( GEOMETRIC_REPRESENTATION_CONTEXT(3) 
GLOBAL_UNCERTAINTY_ASSIGNED_CONTEXT((#61)) GLOBAL_UNIT_ASSIGNED_CONTEXT(
(#58,#59,#60)) REPRESENTATION_CONTEXT('Context #1',
  '3D Context with UNIT and UNCERTAINTY') );
#58 = ( LENGTH_UNIT() NAMED_UNIT(*) SI_UNIT(.MILLI.,.METRE.) );
#59 = ( NAMED_UNIT(*) PLANE_ANGLE_UNIT() SI_UNIT($,.RADIAN.) );
#60 = ( NAMED_UNIT(*) SI_UNIT($,.STERADIAN.) SOLID_ANGLE_UNIT() );
#61 = UNCERTAINTY_MEASURE_WITH_UNIT(LENGTH_MEASURE(1.E-07),#58,
  'distance_accuracy_value','confusion accuracy');
#62 = PRODUCT_RELATED_PRODUCT_CATEGORY('part',$,(#7));
ENDSEC;
END-ISO-10303-21;
