ISO-10303-21;
HEADER;
FILE_DESCRIPTION(('FreeCAD Model'),'2;1');
FILE_NAME('Open CASCADE Shape Model','2026-09-13T16:18:36',('FreeCAD'),(
    'FreeCAD'),'Open CASCADE STEP processor 7.8','FreeCAD','Unknown');
FILE_SCHEMA(('AUTOMOTIVE_DESIGN { 1 0 10303 214 1 1 1 1 }'));
ENDSEC;
DATA;
#1 = APPLICATION_PROTOCOL_DEFINITION('international standard',
  'automotive_design',2000,#2);
#2 = APPLICATION_CONTEXT(
  'core data for automotive mechanical design processes');
#3 = SHAPE_DEFINITION_REPRESENTATION(#4,#10);
#4 = PRODUCT_DEFINITION_SHAPE('','',#5);
#5 = PRODUCT_DEFINITION('design','',#6,#9);
#6 = PRODUCT_DEFINITION_FORMATION('','',#7);
#7 = PRODUCT('Open CASCADE STEP translator 7.8 7',
  'Open CASCADE STEP translator 7.8 7','',(#8));
#8 = PRODUCT_CONTEXT('',#2,'mechanical');
#9 = PRODUCT_DEFINITION_CONTEXT('part definition',#2,'design');
#10 = SHAPE_REPRESENTATION('',(#11,#15,#57,#110),#631);
#11 = AXIS2_PLACEMENT_3D('',#12,#13,#14);
#12 = CARTESIAN_POINT('',(0.,0.,0.));
#13 = DIRECTION('',(0.,0.,1.));
#14 = DIRECTION('',(1.,0.,-0.));
#15 = MANIFOLD_SOLID_BREP('',#16);
#16 = CLOSED_SHELL('',(#17,#48));
#17 = ADVANCED_FACE('',(#18),#39,.F.);
#18 = FACE_BOUND('',#19,.F.);
#19 = EDGE_LOOP('',(#20,#29,#38));
#20 = ORIENTED_EDGE('',*,*,#21,.T.);
#21 = EDGE_CURVE('',#22,#22,#24,.T.);
#22 = VERTEX_POINT('',#23);
#23 = CARTESIAN_POINT('',(-425.9045558604,-241.5987550696,
    193.74068735455));
#24 = CIRCLE('',#25,300.);
#25 = AXIS2_PLACEMENT_3D('',#26,#27,#28);
#26 = CARTESIAN_POINT('',(-241.850678792,-473.3913268174,144.78791400459
    ));
#27 = DIRECTION('',(0.76975113132,0.538985544696,0.342020143326));
#28 = DIRECTION('',(-0.613512923561,0.772641905826,0.163175911167));
#29 = ORIENTED_EDGE('',*,*,#30,.T.);
#30 = EDGE_CURVE('',#22,#31,#33,.T.);
#31 = VERTEX_POINT('',#32);
#32 = CARTESIAN_POINT('',(-703.701357584,-796.7826536349,-60.4241719908)
  );
#33 = ELLIPSE('',#34,600.,300.);
#34 = AXIS2_PLACEMENT_3D('',#35,#36,#37);
#35 = CARTESIAN_POINT('',(-241.850678792,-473.3913268174,144.78791400459
    ));
#36 = DIRECTION('',(-0.176309638009,-0.335438620273,0.925416578398));
#37 = DIRECTION('',(0.76975113132,0.538985544696,0.342020143326));
#38 = ORIENTED_EDGE('',*,*,#30,.F.);
#39 = SURFACE_OF_REVOLUTION('',#40,#45);
#40 = ELLIPSE('',#41,600.,300.);
#41 = AXIS2_PLACEMENT_3D('',#42,#43,#44);
#42 = CARTESIAN_POINT('',(-241.850678792,-473.3913268174,144.78791400459
    ));
#43 = DIRECTION('',(-0.176309638009,-0.335438620273,0.925416578398));
#44 = DIRECTION('',(0.76975113132,0.538985544696,0.342020143326));
#45 = AXIS1_PLACEMENT('',#46,#47);
#46 = CARTESIAN_POINT('',(-241.850678792,-473.3913268174,144.78791400459
    ));
#47 = DIRECTION('',(0.76975113132,0.538985544696,0.342020143326));
#48 = ADVANCED_FACE('',(#49),#52,.T.);
#49 = FACE_BOUND('',#50,.F.);
#50 = EDGE_LOOP('',(#51));
#51 = ORIENTED_EDGE('',*,*,#21,.F.);
#52 = PLANE('',#53);
#53 = AXIS2_PLACEMENT_3D('',#54,#55,#56);
#54 = CARTESIAN_POINT('',(-241.850678792,-473.3913268174,144.78791400459
    ));
#55 = DIRECTION('',(0.76975113132,0.538985544696,0.342020143326));
#56 = DIRECTION('',(-0.613512923561,0.772641905826,0.163175911167));
#57 = MANIFOLD_SOLID_BREP('',#58);
#58 = CLOSED_SHELL('',(#59,#92,#101));
#59 = ADVANCED_FACE('',(#60),#87,.T.);
#60 = FACE_BOUND('',#61,.T.);
#61 = EDGE_LOOP('',(#62,#71,#79,#86));
#62 = ORIENTED_EDGE('',*,*,#63,.F.);
#63 = EDGE_CURVE('',#64,#64,#66,.T.);
#64 = VERTEX_POINT('',#65);
#65 = CARTESIAN_POINT('',(628.95778738943,72.75974073549,832.83705951489
    ));
#66 = CIRCLE('',#67,300.);
#67 = AXIS2_PLACEMENT_3D('',#68,#69,#70);
#68 = CARTESIAN_POINT('',(681.85067879203,173.39132681745,555.2120859954
    ));
#69 = DIRECTION('',(0.76975113132,0.538985544696,0.342020143326));
#70 = DIRECTION('',(-0.176309638009,-0.335438620273,0.925416578398));
#71 = ORIENTED_EDGE('',*,*,#72,.F.);
#72 = EDGE_CURVE('',#73,#64,#75,.T.);
#73 = VERTEX_POINT('',#74);
#74 = CARTESIAN_POINT('',(-294.7435701946,-574.0229128994,
    422.41288752409));
#75 = LINE('',#76,#77);
#76 = CARTESIAN_POINT('',(-294.7435701946,-574.0229128994,
    422.41288752409));
#77 = VECTOR('',#78,1.);
#78 = DIRECTION('',(0.76975113132,0.538985544696,0.342020143326));
#79 = ORIENTED_EDGE('',*,*,#80,.T.);
#80 = EDGE_CURVE('',#73,#73,#81,.T.);
#81 = CIRCLE('',#82,300.);
#82 = AXIS2_PLACEMENT_3D('',#83,#84,#85);
#83 = CARTESIAN_POINT('',(-241.850678792,-473.3913268174,144.78791400459
    ));
#84 = DIRECTION('',(0.76975113132,0.538985544696,0.342020143326));
#85 = DIRECTION('',(-0.176309638009,-0.335438620273,0.925416578398));
#86 = ORIENTED_EDGE('',*,*,#72,.T.);
#87 = CYLINDRICAL_SURFACE('',#88,300.);
#88 = AXIS2_PLACEMENT_3D('',#89,#90,#91);
#89 = CARTESIAN_POINT('',(-241.850678792,-473.3913268174,144.78791400459
    ));
#90 = DIRECTION('',(0.76975113132,0.538985544696,0.342020143326));
#91 = DIRECTION('',(-0.176309638009,-0.335438620273,0.925416578398));
#92 = ADVANCED_FACE('',(#93),#96,.T.);
#93 = FACE_BOUND('',#94,.T.);
#94 = EDGE_LOOP('',(#95));
#95 = ORIENTED_EDGE('',*,*,#63,.T.);
#96 = PLANE('',#97);
#97 = AXIS2_PLACEMENT_3D('',#98,#99,#100);
#98 = CARTESIAN_POINT('',(681.85067879203,173.39132681745,555.2120859954
    ));
#99 = DIRECTION('',(0.76975113132,0.538985544696,0.342020143326));
#100 = DIRECTION('',(-0.176309638009,-0.335438620273,0.925416578398));
#101 = ADVANCED_FACE('',(#102),#105,.F.);
#102 = FACE_BOUND('',#103,.T.);
#103 = EDGE_LOOP('',(#104));
#104 = ORIENTED_EDGE('',*,*,#80,.F.);
#105 = PLANE('',#106);
#106 = AXIS2_PLACEMENT_3D('',#107,#108,#109);
#107 = CARTESIAN_POINT('',(-241.850678792,-473.3913268174,
    144.78791400459));
#108 = DIRECTION('',(0.76975113132,0.538985544696,0.342020143326));
#109 = DIRECTION('',(-0.176309638009,-0.335438620273,0.925416578398));
#110 = MANIFOLD_SOLID_BREP('',#111);
#111 = CLOSED_SHELL('',(#112,#217,#248,#257,#288,#312,#336,#353,#384,
    #408,#432,#449,#474,#499,#511,#523,#543,#563,#588,#613,#622));
#112 = ADVANCED_FACE('',(#113,#140,#176),#212,.T.);
#113 = FACE_BOUND('',#114,.T.);
#114 = EDGE_LOOP('',(#115,#124,#132,#139));
#115 = ORIENTED_EDGE('',*,*,#116,.F.);
#116 = EDGE_CURVE('',#117,#117,#119,.T.);
#117 = VERTEX_POINT('',#118);
#118 = CARTESIAN_POINT('',(1.090808466181E+03,396.15106755294,
    1.03804914551E+03));
#119 = CIRCLE('',#120,300.);
#120 = AXIS2_PLACEMENT_3D('',#121,#122,#123);
#121 = CARTESIAN_POINT('',(1.143701357584E+03,496.7826536349,
    760.4241719908));
#122 = DIRECTION('',(0.76975113132,0.538985544696,0.342020143326));
#123 = DIRECTION('',(-0.176309638009,-0.335438620273,0.925416578398));
#124 = ORIENTED_EDGE('',*,*,#125,.F.);
#125 = EDGE_CURVE('',#126,#117,#128,.T.);
#126 = VERTEX_POINT('',#127);
#127 = CARTESIAN_POINT('',(628.95778738943,72.75974073549,
    832.83705951489));
#128 = LINE('',#129,#130);
#129 = CARTESIAN_POINT('',(628.95778738943,72.75974073549,
    832.83705951489));
#130 = VECTOR('',#131,1.);
#131 = DIRECTION('',(0.76975113132,0.538985544696,0.342020143326));
#132 = ORIENTED_EDGE('',*,*,#133,.T.);
#133 = EDGE_CURVE('',#126,#126,#134,.T.);
#134 = CIRCLE('',#135,300.);
#135 = AXIS2_PLACEMENT_3D('',#136,#137,#138);
#136 = CARTESIAN_POINT('',(681.85067879203,173.39132681745,
    555.2120859954));
#137 = DIRECTION('',(0.76975113132,0.538985544696,0.342020143326));
#138 = DIRECTION('',(-0.176309638009,-0.335438620273,0.925416578398));
#139 = ORIENTED_EDGE('',*,*,#125,.T.);
#140 = FACE_BOUND('',#141,.T.);
#141 = EDGE_LOOP('',(#142,#152,#161,#169));
#142 = ORIENTED_EDGE('',*,*,#143,.T.);
#143 = EDGE_CURVE('',#144,#146,#148,.T.);
#144 = VERTEX_POINT('',#145);
#145 = CARTESIAN_POINT('',(1.069787213281E+03,82.613398513362,
    605.94224151703));
#146 = VERTEX_POINT('',#147);
#147 = CARTESIAN_POINT('',(1.323462704178E+03,260.23888949847,
    718.65675952755));
#148 = LINE('',#149,#150);
#149 = CARTESIAN_POINT('',(864.23492622982,-61.31586237591,
    514.61009555773));
#150 = VECTOR('',#151,1.);
#151 = DIRECTION('',(0.76975113132,0.538985544696,0.342020143326));
#152 = ORIENTED_EDGE('',*,*,#153,.T.);
#153 = EDGE_CURVE('',#146,#154,#156,.T.);
#154 = VERTEX_POINT('',#155);
#155 = CARTESIAN_POINT('',(1.326636277662E+03,266.27678466339,
    701.99926111638));
#156 = ELLIPSE('',#157,300.86400178902,300.);
#157 = AXIS2_PLACEMENT_3D('',#158,#159,#160);
#158 = CARTESIAN_POINT('',(1.15860919595E+03,507.22123443724,
    767.04810641217));
#159 = DIRECTION('',(0.814002716886,0.478924575329,0.328680434537));
#160 = DIRECTION('',(-0.553456853284,0.811241137502,0.188608929741));
#161 = ORIENTED_EDGE('',*,*,#162,.F.);
#162 = EDGE_CURVE('',#163,#154,#165,.T.);
#163 = VERTEX_POINT('',#164);
#164 = CARTESIAN_POINT('',(1.072960786765E+03,88.65129367828,
    589.28474310586));
#165 = LINE('',#166,#167);
#166 = CARTESIAN_POINT('',(867.40849971397,-55.27796721099,
    497.95259714656));
#167 = VECTOR('',#168,1.);
#168 = DIRECTION('',(0.76975113132,0.538985544696,0.342020143326));
#169 = ORIENTED_EDGE('',*,*,#170,.T.);
#170 = EDGE_CURVE('',#163,#144,#171,.T.);
#171 = ELLIPSE('',#172,320.90292817705,300.);
#172 = AXIS2_PLACEMENT_3D('',#173,#174,#175);
#173 = CARTESIAN_POINT('',(799.74926979168,255.94480897971,
    607.59744971996));
#174 = DIRECTION('',(-0.501807393728,-0.77817351318,-0.377670918904));
#175 = DIRECTION('',(0.846820081921,-0.530967904317,-3.112608937847E-02)
  );
#176 = FACE_BOUND('',#177,.T.);
#177 = EDGE_LOOP('',(#178,#189,#197,#206));
#178 = ORIENTED_EDGE('',*,*,#179,.F.);
#179 = EDGE_CURVE('',#180,#182,#184,.T.);
#180 = VERTEX_POINT('',#181);
#181 = CARTESIAN_POINT('',(955.52063581795,723.61537272028,
    816.51823881406));
#182 = VERTEX_POINT('',#183);
#183 = CARTESIAN_POINT('',(958.6942093021,729.6532678852,799.86074040289
    ));
#184 = ELLIPSE('',#185,300.86400178902,300.);
#185 = AXIS2_PLACEMENT_3D('',#186,#187,#188);
#186 = CARTESIAN_POINT('',(1.15860919595E+03,507.22123443724,
    767.04810641217));
#187 = DIRECTION('',(-0.721078502687,-0.59595086638,-0.353395469443));
#188 = DIRECTION('',(0.67004530034,-0.729605028005,-0.136805696528));
#189 = ORIENTED_EDGE('',*,*,#190,.F.);
#190 = EDGE_CURVE('',#191,#180,#193,.T.);
#191 = VERTEX_POINT('',#192);
#192 = CARTESIAN_POINT('',(701.84514492097,545.98988173517,
    703.80372080354));
#193 = LINE('',#194,#195);
#194 = CARTESIAN_POINT('',(496.29285787008,402.0606208459,
    612.47157484423));
#195 = VECTOR('',#196,1.);
#196 = DIRECTION('',(0.76975113132,0.538985544696,0.342020143326));
#197 = ORIENTED_EDGE('',*,*,#198,.F.);
#198 = EDGE_CURVE('',#199,#191,#201,.T.);
#199 = VERTEX_POINT('',#200);
#200 = CARTESIAN_POINT('',(705.01871840512,552.02777690009,
    687.14622239237));
#201 = ELLIPSE('',#202,320.90292817705,300.);
#202 = AXIS2_PLACEMENT_3D('',#203,#204,#205);
#203 = CARTESIAN_POINT('',(799.74926979168,255.94480897971,
    607.59744971996));
#204 = DIRECTION('',(0.937414994848,0.229580852462,0.261812451227));
#205 = DIRECTION('',(-0.300279934361,0.913659435573,0.273967875504));
#206 = ORIENTED_EDGE('',*,*,#207,.T.);
#207 = EDGE_CURVE('',#199,#182,#208,.T.);
#208 = LINE('',#209,#210);
#209 = CARTESIAN_POINT('',(499.46643135424,408.09851601082,
    595.81407643306));
#210 = VECTOR('',#211,1.);
#211 = DIRECTION('',(0.76975113132,0.538985544696,0.342020143326));
#212 = CYLINDRICAL_SURFACE('',#213,300.);
#213 = AXIS2_PLACEMENT_3D('',#214,#215,#216);
#214 = CARTESIAN_POINT('',(681.85067879203,173.39132681745,
    555.2120859954));
#215 = DIRECTION('',(0.76975113132,0.538985544696,0.342020143326));
#216 = DIRECTION('',(-0.176309638009,-0.335438620273,0.925416578398));
#217 = ADVANCED_FACE('',(#218,#221,#232),#243,.T.);
#218 = FACE_BOUND('',#219,.T.);
#219 = EDGE_LOOP('',(#220));
#220 = ORIENTED_EDGE('',*,*,#116,.T.);
#221 = FACE_BOUND('',#222,.T.);
#222 = EDGE_LOOP('',(#223));
#223 = ORIENTED_EDGE('',*,*,#224,.F.);
#224 = EDGE_CURVE('',#225,#225,#227,.T.);
#225 = VERTEX_POINT('',#226);
#226 = CARTESIAN_POINT('',(1.035806551629E+03,582.48946368419,
    868.18805072163));
#227 = CIRCLE('',#228,90.);
#228 = AXIS2_PLACEMENT_3D('',#229,#230,#231);
#229 = CARTESIAN_POINT('',(1.05167441905E+03,612.67893950878,
    784.90055866578));
#230 = DIRECTION('',(0.76975113132,0.538985544696,0.342020143326));
#231 = DIRECTION('',(-0.176309638009,-0.335438620273,0.925416578398));
#232 = FACE_BOUND('',#233,.T.);
#233 = EDGE_LOOP('',(#234));
#234 = ORIENTED_EDGE('',*,*,#235,.F.);
#235 = EDGE_CURVE('',#236,#236,#238,.T.);
#236 = VERTEX_POINT('',#237);
#237 = CARTESIAN_POINT('',(1.219860428697E+03,350.69689193643,
    819.23527737167));
#238 = CIRCLE('',#239,90.);
#239 = AXIS2_PLACEMENT_3D('',#240,#241,#242);
#240 = CARTESIAN_POINT('',(1.235728296118E+03,380.88636776102,
    735.94778531582));
#241 = DIRECTION('',(0.76975113132,0.538985544696,0.342020143326));
#242 = DIRECTION('',(-0.176309638009,-0.335438620273,0.925416578398));
#243 = PLANE('',#244);
#244 = AXIS2_PLACEMENT_3D('',#245,#246,#247);
#245 = CARTESIAN_POINT('',(1.143701357584E+03,496.7826536349,
    760.4241719908));
#246 = DIRECTION('',(0.76975113132,0.538985544696,0.342020143326));
#247 = DIRECTION('',(-0.176309638009,-0.335438620273,0.925416578398));
#248 = ADVANCED_FACE('',(#249),#252,.F.);
#249 = FACE_BOUND('',#250,.T.);
#250 = EDGE_LOOP('',(#251));
#251 = ORIENTED_EDGE('',*,*,#133,.F.);
#252 = PLANE('',#253);
#253 = AXIS2_PLACEMENT_3D('',#254,#255,#256);
#254 = CARTESIAN_POINT('',(681.85067879203,173.39132681745,
    555.2120859954));
#255 = DIRECTION('',(0.76975113132,0.538985544696,0.342020143326));
#256 = DIRECTION('',(-0.176309638009,-0.335438620273,0.925416578398));
#257 = ADVANCED_FACE('',(#258),#283,.F.);
#258 = FACE_BOUND('',#259,.F.);
#259 = EDGE_LOOP('',(#260,#268,#269,#277));
#260 = ORIENTED_EDGE('',*,*,#261,.T.);
#261 = EDGE_CURVE('',#262,#144,#264,.T.);
#262 = VERTEX_POINT('',#263);
#263 = CARTESIAN_POINT('',(1.386947744893E+03,-116.2506416735,
    594.284550273));
#264 = LINE('',#265,#266);
#265 = CARTESIAN_POINT('',(1.386947744893E+03,-116.2506416735,
    594.284550273));
#266 = VECTOR('',#267,1.);
#267 = DIRECTION('',(-0.846820081921,0.530967904317,3.112608937847E-02)
  );
#268 = ORIENTED_EDGE('',*,*,#143,.T.);
#269 = ORIENTED_EDGE('',*,*,#270,.T.);
#270 = EDGE_CURVE('',#146,#271,#273,.T.);
#271 = VERTEX_POINT('',#272);
#272 = CARTESIAN_POINT('',(1.517805437217E+03,-24.62309907523,
    652.42797463837));
#273 = LINE('',#274,#275);
#274 = CARTESIAN_POINT('',(1.29856036635E+03,296.74002006685,
    727.14306384892));
#275 = VECTOR('',#276,1.);
#276 = DIRECTION('',(0.553456853284,-0.811241137502,-0.188608929741));
#277 = ORIENTED_EDGE('',*,*,#278,.T.);
#278 = EDGE_CURVE('',#271,#262,#279,.T.);
#279 = LINE('',#280,#281);
#280 = CARTESIAN_POINT('',(1.517805437217E+03,-24.62309907523,
    652.42797463837));
#281 = VECTOR('',#282,1.);
#282 = DIRECTION('',(-0.76975113132,-0.538985544696,-0.342020143326));
#283 = PLANE('',#284);
#284 = AXIS2_PLACEMENT_3D('',#285,#286,#287);
#285 = CARTESIAN_POINT('',(1.286745161868E+03,82.953708252325,
    647.40025221557));
#286 = DIRECTION('',(0.176309638009,0.335438620273,-0.925416578398));
#287 = DIRECTION('',(-0.76975113132,-0.538985544696,-0.342020143326));
#288 = ADVANCED_FACE('',(#289),#307,.T.);
#289 = FACE_BOUND('',#290,.T.);
#290 = EDGE_LOOP('',(#291,#299,#305,#306));
#291 = ORIENTED_EDGE('',*,*,#292,.F.);
#292 = EDGE_CURVE('',#293,#163,#295,.T.);
#293 = VERTEX_POINT('',#294);
#294 = CARTESIAN_POINT('',(1.390121318377E+03,-110.2127465085,
    577.62705186183));
#295 = LINE('',#296,#297);
#296 = CARTESIAN_POINT('',(1.390121318377E+03,-110.2127465085,
    577.62705186183));
#297 = VECTOR('',#298,1.);
#298 = DIRECTION('',(-0.846820081921,0.530967904317,3.112608937847E-02)
  );
#299 = ORIENTED_EDGE('',*,*,#300,.T.);
#300 = EDGE_CURVE('',#293,#262,#301,.T.);
#301 = LINE('',#302,#303);
#302 = CARTESIAN_POINT('',(1.390121318377E+03,-110.2127465085,
    577.62705186183));
#303 = VECTOR('',#304,1.);
#304 = DIRECTION('',(-0.176309638009,-0.335438620273,0.925416578398));
#305 = ORIENTED_EDGE('',*,*,#261,.T.);
#306 = ORIENTED_EDGE('',*,*,#170,.F.);
#307 = PLANE('',#308);
#308 = AXIS2_PLACEMENT_3D('',#309,#310,#311);
#309 = CARTESIAN_POINT('',(1.390121318377E+03,-110.2127465085,
    577.62705186183));
#310 = DIRECTION('',(-0.501807393728,-0.77817351318,-0.377670918904));
#311 = DIRECTION('',(-0.846820081921,0.530967904317,3.112608937847E-02)
  );
#312 = ADVANCED_FACE('',(#313),#331,.T.);
#313 = FACE_BOUND('',#314,.T.);
#314 = EDGE_LOOP('',(#315,#323,#324,#325));
#315 = ORIENTED_EDGE('',*,*,#316,.F.);
#316 = EDGE_CURVE('',#154,#317,#319,.T.);
#317 = VERTEX_POINT('',#318);
#318 = CARTESIAN_POINT('',(1.520979010701E+03,-18.58520391031,
    635.7704762272));
#319 = LINE('',#320,#321);
#320 = CARTESIAN_POINT('',(1.301733939834E+03,302.77791523177,
    710.48556543775));
#321 = VECTOR('',#322,1.);
#322 = DIRECTION('',(0.553456853284,-0.811241137502,-0.188608929741));
#323 = ORIENTED_EDGE('',*,*,#153,.F.);
#324 = ORIENTED_EDGE('',*,*,#270,.T.);
#325 = ORIENTED_EDGE('',*,*,#326,.F.);
#326 = EDGE_CURVE('',#317,#271,#327,.T.);
#327 = LINE('',#328,#329);
#328 = CARTESIAN_POINT('',(1.520979010701E+03,-18.58520391031,
    635.7704762272));
#329 = VECTOR('',#330,1.);
#330 = DIRECTION('',(-0.176309638009,-0.335438620273,0.925416578398));
#331 = PLANE('',#332);
#332 = AXIS2_PLACEMENT_3D('',#333,#334,#335);
#333 = CARTESIAN_POINT('',(1.301733939834E+03,302.77791523177,
    710.48556543775));
#334 = DIRECTION('',(0.814002716886,0.478924575329,0.328680434537));
#335 = DIRECTION('',(0.553456853284,-0.811241137502,-0.188608929741));
#336 = ADVANCED_FACE('',(#337),#348,.T.);
#337 = FACE_BOUND('',#338,.T.);
#338 = EDGE_LOOP('',(#339,#340,#341,#342));
#339 = ORIENTED_EDGE('',*,*,#292,.T.);
#340 = ORIENTED_EDGE('',*,*,#162,.T.);
#341 = ORIENTED_EDGE('',*,*,#316,.T.);
#342 = ORIENTED_EDGE('',*,*,#343,.T.);
#343 = EDGE_CURVE('',#317,#293,#344,.T.);
#344 = LINE('',#345,#346);
#345 = CARTESIAN_POINT('',(1.520979010701E+03,-18.58520391031,
    635.7704762272));
#346 = VECTOR('',#347,1.);
#347 = DIRECTION('',(-0.76975113132,-0.538985544696,-0.342020143326));
#348 = PLANE('',#349);
#349 = AXIS2_PLACEMENT_3D('',#350,#351,#352);
#350 = CARTESIAN_POINT('',(1.289918735352E+03,88.991603417243,
    630.7427538044));
#351 = DIRECTION('',(0.176309638009,0.335438620273,-0.925416578398));
#352 = DIRECTION('',(-0.76975113132,-0.538985544696,-0.342020143326));
#353 = ADVANCED_FACE('',(#354),#379,.F.);
#354 = FACE_BOUND('',#355,.F.);
#355 = EDGE_LOOP('',(#356,#364,#365,#373));
#356 = ORIENTED_EDGE('',*,*,#357,.F.);
#357 = EDGE_CURVE('',#182,#358,#360,.T.);
#358 = VERTEX_POINT('',#359);
#359 = CARTESIAN_POINT('',(723.41221007169,985.8492736633,
    847.89916074369));
#360 = LINE('',#361,#362);
#361 = CARTESIAN_POINT('',(988.84234881801,696.82528720296,
    793.70528013268));
#362 = VECTOR('',#363,1.);
#363 = DIRECTION('',(-0.67004530034,0.729605028005,0.136805696528));
#364 = ORIENTED_EDGE('',*,*,#179,.F.);
#365 = ORIENTED_EDGE('',*,*,#366,.T.);
#366 = EDGE_CURVE('',#180,#367,#369,.T.);
#367 = VERTEX_POINT('',#368);
#368 = CARTESIAN_POINT('',(720.23863658753,979.81137849838,
    864.55665915486));
#369 = LINE('',#370,#371);
#370 = CARTESIAN_POINT('',(985.66877533385,690.78739203804,
    810.36277854385));
#371 = VECTOR('',#372,1.);
#372 = DIRECTION('',(-0.67004530034,0.729605028005,0.136805696528));
#373 = ORIENTED_EDGE('',*,*,#374,.F.);
#374 = EDGE_CURVE('',#358,#367,#375,.T.);
#375 = LINE('',#376,#377);
#376 = CARTESIAN_POINT('',(723.41221007169,985.8492736633,
    847.89916074369));
#377 = VECTOR('',#378,1.);
#378 = DIRECTION('',(-0.176309638009,-0.335438620273,0.925416578398));
#379 = PLANE('',#380);
#380 = AXIS2_PLACEMENT_3D('',#381,#382,#383);
#381 = CARTESIAN_POINT('',(988.84234881801,696.82528720296,
    793.70528013268));
#382 = DIRECTION('',(-0.721078502687,-0.59595086638,-0.353395469443));
#383 = DIRECTION('',(-0.67004530034,0.729605028005,0.136805696528));
#384 = ADVANCED_FACE('',(#385),#403,.F.);
#385 = FACE_BOUND('',#386,.F.);
#386 = EDGE_LOOP('',(#387,#395,#396,#397));
#387 = ORIENTED_EDGE('',*,*,#388,.T.);
#388 = EDGE_CURVE('',#389,#199,#391,.T.);
#389 = VERTEX_POINT('',#390);
#390 = CARTESIAN_POINT('',(592.55451774728,894.22173106502,
    789.75573637833));
#391 = LINE('',#392,#393);
#392 = CARTESIAN_POINT('',(592.55451774728,894.22173106502,
    789.75573637833));
#393 = VECTOR('',#394,1.);
#394 = DIRECTION('',(0.300279934361,-0.913659435573,-0.273967875504));
#395 = ORIENTED_EDGE('',*,*,#207,.T.);
#396 = ORIENTED_EDGE('',*,*,#357,.T.);
#397 = ORIENTED_EDGE('',*,*,#398,.T.);
#398 = EDGE_CURVE('',#358,#389,#399,.T.);
#399 = LINE('',#400,#401);
#400 = CARTESIAN_POINT('',(723.41221007169,985.8492736633,
    847.89916074369));
#401 = VECTOR('',#402,1.);
#402 = DIRECTION('',(-0.76975113132,-0.538985544696,-0.342020143326));
#403 = PLANE('',#404);
#404 = AXIS2_PLACEMENT_3D('',#405,#406,#407);
#405 = CARTESIAN_POINT('',(767.27494259765,747.19533571659,
    769.75022018866));
#406 = DIRECTION('',(-0.176309638009,-0.335438620273,0.925416578398));
#407 = DIRECTION('',(0.76975113132,0.538985544696,0.342020143326));
#408 = ADVANCED_FACE('',(#409),#427,.F.);
#409 = FACE_BOUND('',#410,.F.);
#410 = EDGE_LOOP('',(#411,#412,#420,#426));
#411 = ORIENTED_EDGE('',*,*,#388,.F.);
#412 = ORIENTED_EDGE('',*,*,#413,.T.);
#413 = EDGE_CURVE('',#389,#414,#416,.T.);
#414 = VERTEX_POINT('',#415);
#415 = CARTESIAN_POINT('',(589.38094426312,888.1838359001,806.4132347895
    ));
#416 = LINE('',#417,#418);
#417 = CARTESIAN_POINT('',(592.55451774728,894.22173106502,
    789.75573637833));
#418 = VECTOR('',#419,1.);
#419 = DIRECTION('',(-0.176309638009,-0.335438620273,0.925416578398));
#420 = ORIENTED_EDGE('',*,*,#421,.T.);
#421 = EDGE_CURVE('',#414,#191,#422,.T.);
#422 = LINE('',#423,#424);
#423 = CARTESIAN_POINT('',(589.38094426312,888.1838359001,806.4132347895
    ));
#424 = VECTOR('',#425,1.);
#425 = DIRECTION('',(0.300279934361,-0.913659435573,-0.273967875504));
#426 = ORIENTED_EDGE('',*,*,#198,.F.);
#427 = PLANE('',#428);
#428 = AXIS2_PLACEMENT_3D('',#429,#430,#431);
#429 = CARTESIAN_POINT('',(592.55451774728,894.22173106502,
    789.75573637833));
#430 = DIRECTION('',(0.937414994848,0.229580852462,0.261812451227));
#431 = DIRECTION('',(0.300279934361,-0.913659435573,-0.273967875504));
#432 = ADVANCED_FACE('',(#433),#444,.T.);
#433 = FACE_BOUND('',#434,.T.);
#434 = EDGE_LOOP('',(#435,#436,#437,#438));
#435 = ORIENTED_EDGE('',*,*,#421,.T.);
#436 = ORIENTED_EDGE('',*,*,#190,.T.);
#437 = ORIENTED_EDGE('',*,*,#366,.T.);
#438 = ORIENTED_EDGE('',*,*,#439,.T.);
#439 = EDGE_CURVE('',#367,#414,#440,.T.);
#440 = LINE('',#441,#442);
#441 = CARTESIAN_POINT('',(720.23863658753,979.81137849838,
    864.55665915486));
#442 = VECTOR('',#443,1.);
#443 = DIRECTION('',(-0.76975113132,-0.538985544696,-0.342020143326));
#444 = PLANE('',#445);
#445 = AXIS2_PLACEMENT_3D('',#446,#447,#448);
#446 = CARTESIAN_POINT('',(764.1013691135,741.15744055167,
    786.40771859983));
#447 = DIRECTION('',(-0.176309638009,-0.335438620273,0.925416578398));
#448 = DIRECTION('',(0.76975113132,0.538985544696,0.342020143326));
#449 = ADVANCED_FACE('',(#450),#469,.T.);
#450 = FACE_BOUND('',#451,.T.);
#451 = EDGE_LOOP('',(#452,#460,#467,#468));
#452 = ORIENTED_EDGE('',*,*,#453,.T.);
#453 = EDGE_CURVE('',#225,#454,#456,.T.);
#454 = VERTEX_POINT('',#455);
#455 = CARTESIAN_POINT('',(1.18205926658E+03,684.89671717639,
    933.1718779535));
#456 = LINE('',#457,#458);
#457 = CARTESIAN_POINT('',(1.035036800498E+03,581.9504781395,
    867.8460305783));
#458 = VECTOR('',#459,1.);
#459 = DIRECTION('',(0.76975113132,0.538985544696,0.342020143326));
#460 = ORIENTED_EDGE('',*,*,#461,.F.);
#461 = EDGE_CURVE('',#454,#454,#462,.T.);
#462 = CIRCLE('',#463,90.);
#463 = AXIS2_PLACEMENT_3D('',#464,#465,#466);
#464 = CARTESIAN_POINT('',(1.197927134001E+03,715.08619300098,
    849.88438589766));
#465 = DIRECTION('',(0.76975113132,0.538985544696,0.342020143326));
#466 = DIRECTION('',(-0.176309638009,-0.335438620273,0.925416578398));
#467 = ORIENTED_EDGE('',*,*,#453,.F.);
#468 = ORIENTED_EDGE('',*,*,#224,.T.);
#469 = CYLINDRICAL_SURFACE('',#470,90.);
#470 = AXIS2_PLACEMENT_3D('',#471,#472,#473);
#471 = CARTESIAN_POINT('',(1.050904667919E+03,612.13995396409,
    784.55853852245));
#472 = DIRECTION('',(0.76975113132,0.538985544696,0.342020143326));
#473 = DIRECTION('',(-0.176309638009,-0.335438620273,0.925416578398));
#474 = ADVANCED_FACE('',(#475),#494,.T.);
#475 = FACE_BOUND('',#476,.T.);
#476 = EDGE_LOOP('',(#477,#485,#492,#493));
#477 = ORIENTED_EDGE('',*,*,#478,.T.);
#478 = EDGE_CURVE('',#236,#479,#481,.T.);
#479 = VERTEX_POINT('',#480);
#480 = CARTESIAN_POINT('',(1.366113143648E+03,453.10414542863,
    884.21910460354));
#481 = LINE('',#482,#483);
#482 = CARTESIAN_POINT('',(1.219090677566E+03,350.15790639174,
    818.89325722834));
#483 = VECTOR('',#484,1.);
#484 = DIRECTION('',(0.76975113132,0.538985544696,0.342020143326));
#485 = ORIENTED_EDGE('',*,*,#486,.F.);
#486 = EDGE_CURVE('',#479,#479,#487,.T.);
#487 = CIRCLE('',#488,90.);
#488 = AXIS2_PLACEMENT_3D('',#489,#490,#491);
#489 = CARTESIAN_POINT('',(1.381981011069E+03,483.29362125322,
    800.93161254769));
#490 = DIRECTION('',(0.76975113132,0.538985544696,0.342020143326));
#491 = DIRECTION('',(-0.176309638009,-0.335438620273,0.925416578398));
#492 = ORIENTED_EDGE('',*,*,#478,.F.);
#493 = ORIENTED_EDGE('',*,*,#235,.T.);
#494 = CYLINDRICAL_SURFACE('',#495,90.);
#495 = AXIS2_PLACEMENT_3D('',#496,#497,#498);
#496 = CARTESIAN_POINT('',(1.234958544987E+03,380.34738221633,
    735.60576517249));
#497 = DIRECTION('',(0.76975113132,0.538985544696,0.342020143326));
#498 = DIRECTION('',(-0.176309638009,-0.335438620273,0.925416578398));
#499 = ADVANCED_FACE('',(#500),#506,.T.);
#500 = FACE_BOUND('',#501,.T.);
#501 = EDGE_LOOP('',(#502,#503,#504,#505));
#502 = ORIENTED_EDGE('',*,*,#326,.T.);
#503 = ORIENTED_EDGE('',*,*,#278,.T.);
#504 = ORIENTED_EDGE('',*,*,#300,.F.);
#505 = ORIENTED_EDGE('',*,*,#343,.F.);
#506 = PLANE('',#507);
#507 = AXIS2_PLACEMENT_3D('',#508,#509,#510);
#508 = CARTESIAN_POINT('',(1.520979010701E+03,-18.58520391031,
    635.7704762272));
#509 = DIRECTION('',(0.613512923561,-0.772641905826,-0.163175911167));
#510 = DIRECTION('',(-0.76975113132,-0.538985544696,-0.342020143326));
#511 = ADVANCED_FACE('',(#512),#518,.F.);
#512 = FACE_BOUND('',#513,.F.);
#513 = EDGE_LOOP('',(#514,#515,#516,#517));
#514 = ORIENTED_EDGE('',*,*,#374,.T.);
#515 = ORIENTED_EDGE('',*,*,#439,.T.);
#516 = ORIENTED_EDGE('',*,*,#413,.F.);
#517 = ORIENTED_EDGE('',*,*,#398,.F.);
#518 = PLANE('',#519);
#519 = AXIS2_PLACEMENT_3D('',#520,#521,#522);
#520 = CARTESIAN_POINT('',(723.41221007169,985.8492736633,
    847.89916074369));
#521 = DIRECTION('',(0.613512923561,-0.772641905826,-0.163175911167));
#522 = DIRECTION('',(-0.76975113132,-0.538985544696,-0.342020143326));
#523 = ADVANCED_FACE('',(#524,#527),#538,.T.);
#524 = FACE_BOUND('',#525,.T.);
#525 = EDGE_LOOP('',(#526));
#526 = ORIENTED_EDGE('',*,*,#461,.T.);
#527 = FACE_BOUND('',#528,.T.);
#528 = EDGE_LOOP('',(#529));
#529 = ORIENTED_EDGE('',*,*,#530,.F.);
#530 = EDGE_CURVE('',#531,#531,#533,.T.);
#531 = VERTEX_POINT('',#532);
#532 = CARTESIAN_POINT('',(1.187613020177E+03,695.46303371499,
    904.02125573396));
#533 = CIRCLE('',#534,58.5);
#534 = AXIS2_PLACEMENT_3D('',#535,#536,#537);
#535 = CARTESIAN_POINT('',(1.197927134001E+03,715.08619300098,
    849.88438589766));
#536 = DIRECTION('',(0.76975113132,0.538985544696,0.342020143326));
#537 = DIRECTION('',(-0.176309638009,-0.335438620273,0.925416578398));
#538 = PLANE('',#539);
#539 = AXIS2_PLACEMENT_3D('',#540,#541,#542);
#540 = CARTESIAN_POINT('',(1.197927134001E+03,715.08619300098,
    849.88438589766));
#541 = DIRECTION('',(0.76975113132,0.538985544696,0.342020143326));
#542 = DIRECTION('',(-0.176309638009,-0.335438620273,0.925416578398));
#543 = ADVANCED_FACE('',(#544,#547),#558,.T.);
#544 = FACE_BOUND('',#545,.T.);
#545 = EDGE_LOOP('',(#546));
#546 = ORIENTED_EDGE('',*,*,#486,.T.);
#547 = FACE_BOUND('',#548,.T.);
#548 = EDGE_LOOP('',(#549));
#549 = ORIENTED_EDGE('',*,*,#550,.F.);
#550 = EDGE_CURVE('',#551,#551,#553,.T.);
#551 = VERTEX_POINT('',#552);
#552 = CARTESIAN_POINT('',(1.371666897246E+03,463.67046196723,
    855.068482384));
#553 = CIRCLE('',#554,58.5);
#554 = AXIS2_PLACEMENT_3D('',#555,#556,#557);
#555 = CARTESIAN_POINT('',(1.381981011069E+03,483.29362125322,
    800.93161254769));
#556 = DIRECTION('',(0.76975113132,0.538985544696,0.342020143326));
#557 = DIRECTION('',(-0.176309638009,-0.335438620273,0.925416578398));
#558 = PLANE('',#559);
#559 = AXIS2_PLACEMENT_3D('',#560,#561,#562);
#560 = CARTESIAN_POINT('',(1.381981011069E+03,483.29362125322,
    800.93161254769));
#561 = DIRECTION('',(0.76975113132,0.538985544696,0.342020143326));
#562 = DIRECTION('',(-0.176309638009,-0.335438620273,0.925416578398));
#563 = ADVANCED_FACE('',(#564),#583,.F.);
#564 = FACE_BOUND('',#565,.F.);
#565 = EDGE_LOOP('',(#566,#567,#575,#582));
#566 = ORIENTED_EDGE('',*,*,#530,.F.);
#567 = ORIENTED_EDGE('',*,*,#568,.F.);
#568 = EDGE_CURVE('',#569,#531,#571,.T.);
#569 = VERTEX_POINT('',#570);
#570 = CARTESIAN_POINT('',(1.041360305226E+03,593.0557802228,
    839.03742850208));
#571 = LINE('',#572,#573);
#572 = CARTESIAN_POINT('',(1.041360305226E+03,593.0557802228,
    839.03742850208));
#573 = VECTOR('',#574,1.);
#574 = DIRECTION('',(0.76975113132,0.538985544696,0.342020143326));
#575 = ORIENTED_EDGE('',*,*,#576,.T.);
#576 = EDGE_CURVE('',#569,#569,#577,.T.);
#577 = CIRCLE('',#578,58.5);
#578 = AXIS2_PLACEMENT_3D('',#579,#580,#581);
#579 = CARTESIAN_POINT('',(1.05167441905E+03,612.67893950878,
    784.90055866578));
#580 = DIRECTION('',(0.76975113132,0.538985544696,0.342020143326));
#581 = DIRECTION('',(-0.176309638009,-0.335438620273,0.925416578398));
#582 = ORIENTED_EDGE('',*,*,#568,.T.);
#583 = CYLINDRICAL_SURFACE('',#584,58.5);
#584 = AXIS2_PLACEMENT_3D('',#585,#586,#587);
#585 = CARTESIAN_POINT('',(1.05167441905E+03,612.67893950878,
    784.90055866578));
#586 = DIRECTION('',(0.76975113132,0.538985544696,0.342020143326));
#587 = DIRECTION('',(-0.176309638009,-0.335438620273,0.925416578398));
#588 = ADVANCED_FACE('',(#589),#608,.F.);
#589 = FACE_BOUND('',#590,.F.);
#590 = EDGE_LOOP('',(#591,#592,#600,#607));
#591 = ORIENTED_EDGE('',*,*,#550,.F.);
#592 = ORIENTED_EDGE('',*,*,#593,.F.);
#593 = EDGE_CURVE('',#594,#551,#596,.T.);
#594 = VERTEX_POINT('',#595);
#595 = CARTESIAN_POINT('',(1.225414182295E+03,361.26320847504,
    790.08465515212));
#596 = LINE('',#597,#598);
#597 = CARTESIAN_POINT('',(1.225414182295E+03,361.26320847504,
    790.08465515212));
#598 = VECTOR('',#599,1.);
#599 = DIRECTION('',(0.76975113132,0.538985544696,0.342020143326));
#600 = ORIENTED_EDGE('',*,*,#601,.T.);
#601 = EDGE_CURVE('',#594,#594,#602,.T.);
#602 = CIRCLE('',#603,58.5);
#603 = AXIS2_PLACEMENT_3D('',#604,#605,#606);
#604 = CARTESIAN_POINT('',(1.235728296118E+03,380.88636776102,
    735.94778531582));
#605 = DIRECTION('',(0.76975113132,0.538985544696,0.342020143326));
#606 = DIRECTION('',(-0.176309638009,-0.335438620273,0.925416578398));
#607 = ORIENTED_EDGE('',*,*,#593,.T.);
#608 = CYLINDRICAL_SURFACE('',#609,58.5);
#609 = AXIS2_PLACEMENT_3D('',#610,#611,#612);
#610 = CARTESIAN_POINT('',(1.235728296118E+03,380.88636776102,
    735.94778531582));
#611 = DIRECTION('',(0.76975113132,0.538985544696,0.342020143326));
#612 = DIRECTION('',(-0.176309638009,-0.335438620273,0.925416578398));
#613 = ADVANCED_FACE('',(#614),#617,.T.);
#614 = FACE_BOUND('',#615,.F.);
#615 = EDGE_LOOP('',(#616));
#616 = ORIENTED_EDGE('',*,*,#576,.F.);
#617 = PLANE('',#618);
#618 = AXIS2_PLACEMENT_3D('',#619,#620,#621);
#619 = CARTESIAN_POINT('',(1.05167441905E+03,612.67893950878,
    784.90055866578));
#620 = DIRECTION('',(0.76975113132,0.538985544696,0.342020143326));
#621 = DIRECTION('',(-0.176309638009,-0.335438620273,0.925416578398));
#622 = ADVANCED_FACE('',(#623),#626,.T.);
#623 = FACE_BOUND('',#624,.F.);
#624 = EDGE_LOOP('',(#625));
#625 = ORIENTED_EDGE('',*,*,#601,.F.);
#626 = PLANE('',#627);
#627 = AXIS2_PLACEMENT_3D('',#628,#629,#630);
#628 = CARTESIAN_POINT('',(1.235728296118E+03,380.88636776102,
    735.94778531582));
#629 = DIRECTION('',(0.76975113132,0.538985544696,0.342020143326));
#630 = DIRECTION('',(-0.176309638009,-0.335438620273,0.925416578398));
#631 = ( GEOMETRIC_REPRESENTATION_CONTEXT(3) 
GLOBAL_UNCERTAINTY_ASSIGNED_CONTEXT((#635)) GLOBAL_UNIT_ASSIGNED_CONTEXT
((#632,#633,#634)) REPRESENTATION_CONTEXT('Context #1',
  '3D Context with UNIT and UNCERTAINTY') );
#632 = ( LENGTH_UNIT() NAMED_UNIT(*) SI_UNIT(.MILLI.,.METRE.) );
#633 = ( NAMED_UNIT(*) PLANE_ANGLE_UNIT() SI_UNIT($,.RADIAN.) );
#634 = ( NAMED_UNIT(*) SI_UNIT($,.STERADIAN.) SOLID_ANGLE_UNIT() );
#635 = UNCERTAINTY_MEASURE_WITH_UNIT(LENGTH_MEASURE(1.E-07),#632,
  'distance_accuracy_value','confusion accuracy');
#636 = PRODUCT_RELATED_PRODUCT_CATEGORY('part',$,(#7));
ENDSEC;
END-ISO-10303-21;
