ISO-10303-21;
HEADER;
FILE_DESCRIPTION(('FreeCAD Model'),'2;1');
FILE_NAME('Open CASCADE Shape Model','2026-09-12T22:15:08',('FreeCAD'),(
    'FreeCAD'),'Open CASCADE STEP processor 7.8','FreeCAD','Unknown');
FILE_SCHEMA(('AUTOMOTIVE_DESIGN { 1 0 10303 214 1 1 1 1 }'));
ENDSEC;
DATA;
#1 = APPLICATION_PROTOCOL_DEFINITION('international standard',
  'automotive_design',2000,#2);
#2 = APPLICATION_CONTEXT(
  'core data for automotive mechanical design processes');
#3 = SHAPE_DEFINITION_REPRESENTATION(#4,#10);
#4 = PRODUCT_DEFINITION_SHAPE('','',#5);
#5 = PRODUCT_DEFINITION('design','',#6,#9);
#6 = PRODUCT_DEFINITION_FORMATION('','',#7);
#7 = PRODUCT('Open CASCADE STEP translator 7.8 6',
  'Open CASCADE STEP translator 7.8 6','',(#8));
#8 = PRODUCT_CONTEXT('',#2,'mechanical');
#9 = PRODUCT_DEFINITION_CONTEXT('part definition',#2,'design');
#10 = ADVANCED_BREP_SHAPE_REPRESENTATION('',(#11,#15),#536);
#11 = AXIS2_PLACEMENT_3D('',#12,#13,#14);
#12 = CARTESIAN_POINT('',(0.,0.,0.));
#13 = DIRECTION('',(0.,0.,1.));
#14 = DIRECTION('',(1.,0.,-0.));
#15 = MANIFOLD_SOLID_BREP('',#16);
#16 = CLOSED_SHELL('',(#17,#122,#153,#162,#193,#217,#241,#258,#289,#313,
    #337,#354,#379,#404,#416,#428,#448,#468,#493,#518,#527));
#17 = ADVANCED_FACE('',(#18,#45,#81),#117,.T.);
#18 = FACE_BOUND('',#19,.T.);
#19 = EDGE_LOOP('',(#20,#29,#37,#44));
#20 = ORIENTED_EDGE('',*,*,#21,.F.);
#21 = EDGE_CURVE('',#22,#22,#24,.T.);
#22 = VERTEX_POINT('',#23);
#23 = CARTESIAN_POINT('',(1.2E+03,7.347880794884E-14,300.));
#24 = CIRCLE('',#25,300.);
#25 = AXIS2_PLACEMENT_3D('',#26,#27,#28);
#26 = CARTESIAN_POINT('',(1.2E+03,0.,0.));
#27 = DIRECTION('',(1.,0.,0.));
#28 = DIRECTION('',(-0.,0.,1.));
#29 = ORIENTED_EDGE('',*,*,#30,.F.);
#30 = EDGE_CURVE('',#31,#22,#33,.T.);
#31 = VERTEX_POINT('',#32);
#32 = CARTESIAN_POINT('',(600.,7.347880794884E-14,300.));
#33 = LINE('',#34,#35);
#34 = CARTESIAN_POINT('',(600.,7.347880794884E-14,300.));
#35 = VECTOR('',#36,1.);
#36 = DIRECTION('',(1.,0.,0.));
#37 = ORIENTED_EDGE('',*,*,#38,.T.);
#38 = EDGE_CURVE('',#31,#31,#39,.T.);
#39 = CIRCLE('',#40,300.);
#40 = AXIS2_PLACEMENT_3D('',#41,#42,#43);
#41 = CARTESIAN_POINT('',(600.,0.,0.));
#42 = DIRECTION('',(1.,0.,0.));
#43 = DIRECTION('',(-0.,0.,1.));
#44 = ORIENTED_EDGE('',*,*,#30,.T.);
#45 = FACE_BOUND('',#46,.T.);
#46 = EDGE_LOOP('',(#47,#57,#66,#74));
#47 = ORIENTED_EDGE('',*,*,#48,.T.);
#48 = EDGE_CURVE('',#49,#51,#53,.T.);
#49 = VERTEX_POINT('',#50);
#50 = CARTESIAN_POINT('',(867.03733023214,-299.8649696113,9.));
#51 = VERTEX_POINT('',#52);
#52 = CARTESIAN_POINT('',(1.196592533954E+03,-299.8649696113,9.));
#53 = LINE('',#54,#55);
#54 = CARTESIAN_POINT('',(600.,-299.8649696113,9.));
#55 = VECTOR('',#56,1.);
#56 = DIRECTION('',(1.,0.,0.));
#57 = ORIENTED_EDGE('',*,*,#58,.T.);
#58 = EDGE_CURVE('',#51,#59,#61,.T.);
#59 = VERTEX_POINT('',#60);
#60 = CARTESIAN_POINT('',(1.196592533954E+03,-299.8649696113,-9.));
#61 = ELLIPSE('',#62,300.86400178902,300.);
#62 = AXIS2_PLACEMENT_3D('',#63,#64,#65);
#63 = CARTESIAN_POINT('',(1.219367088608E+03,0.,0.));
#64 = DIRECTION('',(0.997128264652,-7.573126060644E-02,0.));
#65 = DIRECTION('',(7.573126060644E-02,0.997128264652,0.));
#66 = ORIENTED_EDGE('',*,*,#67,.F.);
#67 = EDGE_CURVE('',#68,#59,#70,.T.);
#68 = VERTEX_POINT('',#69);
#69 = CARTESIAN_POINT('',(867.03733023214,-299.8649696113,-9.));
#70 = LINE('',#71,#72);
#71 = CARTESIAN_POINT('',(600.,-299.8649696113,-9.));
#72 = VECTOR('',#73,1.);
#73 = DIRECTION('',(1.,0.,0.));
#74 = ORIENTED_EDGE('',*,*,#75,.T.);
#75 = EDGE_CURVE('',#68,#49,#76,.T.);
#76 = ELLIPSE('',#77,320.90292817705,300.);
#77 = AXIS2_PLACEMENT_3D('',#78,#79,#80);
#78 = CARTESIAN_POINT('',(753.16455696202,0.,0.));
#79 = DIRECTION('',(-0.934862145709,-0.355010941409,0.));
#80 = DIRECTION('',(0.355010941409,-0.934862145709,0.));
#81 = FACE_BOUND('',#82,.T.);
#82 = EDGE_LOOP('',(#83,#94,#102,#111));
#83 = ORIENTED_EDGE('',*,*,#84,.F.);
#84 = EDGE_CURVE('',#85,#87,#89,.T.);
#85 = VERTEX_POINT('',#86);
#86 = CARTESIAN_POINT('',(1.196592533954E+03,299.86496961132,9.));
#87 = VERTEX_POINT('',#88);
#88 = CARTESIAN_POINT('',(1.196592533954E+03,299.86496961132,-9.));
#89 = ELLIPSE('',#90,300.86400178902,300.);
#90 = AXIS2_PLACEMENT_3D('',#91,#92,#93);
#91 = CARTESIAN_POINT('',(1.219367088608E+03,0.,0.));
#92 = DIRECTION('',(-0.997128264652,-7.573126060644E-02,0.));
#93 = DIRECTION('',(7.573126060644E-02,-0.997128264652,0.));
#94 = ORIENTED_EDGE('',*,*,#95,.F.);
#95 = EDGE_CURVE('',#96,#85,#98,.T.);
#96 = VERTEX_POINT('',#97);
#97 = CARTESIAN_POINT('',(867.03733023214,299.86496961132,9.));
#98 = LINE('',#99,#100);
#99 = CARTESIAN_POINT('',(600.,299.86496961132,9.));
#100 = VECTOR('',#101,1.);
#101 = DIRECTION('',(1.,0.,0.));
#102 = ORIENTED_EDGE('',*,*,#103,.F.);
#103 = EDGE_CURVE('',#104,#96,#106,.T.);
#104 = VERTEX_POINT('',#105);
#105 = CARTESIAN_POINT('',(867.03733023214,299.86496961132,-9.));
#106 = ELLIPSE('',#107,320.90292817705,300.);
#107 = AXIS2_PLACEMENT_3D('',#108,#109,#110);
#108 = CARTESIAN_POINT('',(753.16455696202,0.,0.));
#109 = DIRECTION('',(0.934862145709,-0.355010941409,0.));
#110 = DIRECTION('',(0.355010941409,0.934862145709,0.));
#111 = ORIENTED_EDGE('',*,*,#112,.T.);
#112 = EDGE_CURVE('',#104,#87,#113,.T.);
#113 = LINE('',#114,#115);
#114 = CARTESIAN_POINT('',(600.,299.86496961132,-9.));
#115 = VECTOR('',#116,1.);
#116 = DIRECTION('',(1.,0.,0.));
#117 = CYLINDRICAL_SURFACE('',#118,300.);
#118 = AXIS2_PLACEMENT_3D('',#119,#120,#121);
#119 = CARTESIAN_POINT('',(600.,0.,0.));
#120 = DIRECTION('',(1.,0.,0.));
#121 = DIRECTION('',(-0.,0.,1.));
#122 = ADVANCED_FACE('',(#123,#126,#137),#148,.T.);
#123 = FACE_BOUND('',#124,.T.);
#124 = EDGE_LOOP('',(#125));
#125 = ORIENTED_EDGE('',*,*,#21,.T.);
#126 = FACE_BOUND('',#127,.T.);
#127 = EDGE_LOOP('',(#128));
#128 = ORIENTED_EDGE('',*,*,#129,.F.);
#129 = EDGE_CURVE('',#130,#130,#132,.T.);
#130 = VERTEX_POINT('',#131);
#131 = CARTESIAN_POINT('',(1.2E+03,150.,90.));
#132 = CIRCLE('',#133,90.);
#133 = AXIS2_PLACEMENT_3D('',#134,#135,#136);
#134 = CARTESIAN_POINT('',(1.2E+03,150.,0.));
#135 = DIRECTION('',(1.,0.,0.));
#136 = DIRECTION('',(-0.,0.,1.));
#137 = FACE_BOUND('',#138,.T.);
#138 = EDGE_LOOP('',(#139));
#139 = ORIENTED_EDGE('',*,*,#140,.F.);
#140 = EDGE_CURVE('',#141,#141,#143,.T.);
#141 = VERTEX_POINT('',#142);
#142 = CARTESIAN_POINT('',(1.2E+03,-150.,90.));
#143 = CIRCLE('',#144,90.);
#144 = AXIS2_PLACEMENT_3D('',#145,#146,#147);
#145 = CARTESIAN_POINT('',(1.2E+03,-150.,0.));
#146 = DIRECTION('',(1.,0.,0.));
#147 = DIRECTION('',(-0.,0.,1.));
#148 = PLANE('',#149);
#149 = AXIS2_PLACEMENT_3D('',#150,#151,#152);
#150 = CARTESIAN_POINT('',(1.2E+03,0.,0.));
#151 = DIRECTION('',(1.,0.,0.));
#152 = DIRECTION('',(-0.,0.,1.));
#153 = ADVANCED_FACE('',(#154),#157,.F.);
#154 = FACE_BOUND('',#155,.T.);
#155 = EDGE_LOOP('',(#156));
#156 = ORIENTED_EDGE('',*,*,#38,.F.);
#157 = PLANE('',#158);
#158 = AXIS2_PLACEMENT_3D('',#159,#160,#161);
#159 = CARTESIAN_POINT('',(600.,0.,0.));
#160 = DIRECTION('',(1.,0.,0.));
#161 = DIRECTION('',(-0.,0.,1.));
#162 = ADVANCED_FACE('',(#163),#188,.F.);
#163 = FACE_BOUND('',#164,.F.);
#164 = EDGE_LOOP('',(#165,#173,#174,#182));
#165 = ORIENTED_EDGE('',*,*,#166,.T.);
#166 = EDGE_CURVE('',#167,#49,#169,.T.);
#167 = VERTEX_POINT('',#168);
#168 = CARTESIAN_POINT('',(1.E+03,-650.,9.));
#169 = LINE('',#170,#171);
#170 = CARTESIAN_POINT('',(1.E+03,-650.,9.));
#171 = VECTOR('',#172,1.);
#172 = DIRECTION('',(-0.355010941409,0.934862145709,0.));
#173 = ORIENTED_EDGE('',*,*,#48,.T.);
#174 = ORIENTED_EDGE('',*,*,#175,.T.);
#175 = EDGE_CURVE('',#51,#176,#178,.T.);
#176 = VERTEX_POINT('',#177);
#177 = CARTESIAN_POINT('',(1.17E+03,-650.,9.));
#178 = LINE('',#179,#180);
#179 = CARTESIAN_POINT('',(1.2E+03,-255.,9.));
#180 = VECTOR('',#181,1.);
#181 = DIRECTION('',(-7.573126060644E-02,-0.997128264652,0.));
#182 = ORIENTED_EDGE('',*,*,#183,.T.);
#183 = EDGE_CURVE('',#176,#167,#184,.T.);
#184 = LINE('',#185,#186);
#185 = CARTESIAN_POINT('',(1.17E+03,-650.,9.));
#186 = VECTOR('',#187,1.);
#187 = DIRECTION('',(-1.,0.,0.));
#188 = PLANE('',#189);
#189 = AXIS2_PLACEMENT_3D('',#190,#191,#192);
#190 = CARTESIAN_POINT('',(1.048403853397E+03,-425.9435887028,9.));
#191 = DIRECTION('',(-0.,-0.,-1.));
#192 = DIRECTION('',(-1.,0.,0.));
#193 = ADVANCED_FACE('',(#194),#212,.T.);
#194 = FACE_BOUND('',#195,.T.);
#195 = EDGE_LOOP('',(#196,#204,#210,#211));
#196 = ORIENTED_EDGE('',*,*,#197,.F.);
#197 = EDGE_CURVE('',#198,#68,#200,.T.);
#198 = VERTEX_POINT('',#199);
#199 = CARTESIAN_POINT('',(1.E+03,-650.,-9.));
#200 = LINE('',#201,#202);
#201 = CARTESIAN_POINT('',(1.E+03,-650.,-9.));
#202 = VECTOR('',#203,1.);
#203 = DIRECTION('',(-0.355010941409,0.934862145709,0.));
#204 = ORIENTED_EDGE('',*,*,#205,.T.);
#205 = EDGE_CURVE('',#198,#167,#206,.T.);
#206 = LINE('',#207,#208);
#207 = CARTESIAN_POINT('',(1.E+03,-650.,-9.));
#208 = VECTOR('',#209,1.);
#209 = DIRECTION('',(0.,0.,1.));
#210 = ORIENTED_EDGE('',*,*,#166,.T.);
#211 = ORIENTED_EDGE('',*,*,#75,.F.);
#212 = PLANE('',#213);
#213 = AXIS2_PLACEMENT_3D('',#214,#215,#216);
#214 = CARTESIAN_POINT('',(1.E+03,-650.,-9.));
#215 = DIRECTION('',(-0.934862145709,-0.355010941409,0.));
#216 = DIRECTION('',(-0.355010941409,0.934862145709,0.));
#217 = ADVANCED_FACE('',(#218),#236,.T.);
#218 = FACE_BOUND('',#219,.T.);
#219 = EDGE_LOOP('',(#220,#228,#229,#230));
#220 = ORIENTED_EDGE('',*,*,#221,.F.);
#221 = EDGE_CURVE('',#59,#222,#224,.T.);
#222 = VERTEX_POINT('',#223);
#223 = CARTESIAN_POINT('',(1.17E+03,-650.,-9.));
#224 = LINE('',#225,#226);
#225 = CARTESIAN_POINT('',(1.2E+03,-255.,-9.));
#226 = VECTOR('',#227,1.);
#227 = DIRECTION('',(-7.573126060644E-02,-0.997128264652,0.));
#228 = ORIENTED_EDGE('',*,*,#58,.F.);
#229 = ORIENTED_EDGE('',*,*,#175,.T.);
#230 = ORIENTED_EDGE('',*,*,#231,.F.);
#231 = EDGE_CURVE('',#222,#176,#232,.T.);
#232 = LINE('',#233,#234);
#233 = CARTESIAN_POINT('',(1.17E+03,-650.,-9.));
#234 = VECTOR('',#235,1.);
#235 = DIRECTION('',(0.,0.,1.));
#236 = PLANE('',#237);
#237 = AXIS2_PLACEMENT_3D('',#238,#239,#240);
#238 = CARTESIAN_POINT('',(1.2E+03,-255.,-9.));
#239 = DIRECTION('',(0.997128264652,-7.573126060644E-02,0.));
#240 = DIRECTION('',(-7.573126060644E-02,-0.997128264652,0.));
#241 = ADVANCED_FACE('',(#242),#253,.T.);
#242 = FACE_BOUND('',#243,.T.);
#243 = EDGE_LOOP('',(#244,#245,#246,#247));
#244 = ORIENTED_EDGE('',*,*,#197,.T.);
#245 = ORIENTED_EDGE('',*,*,#67,.T.);
#246 = ORIENTED_EDGE('',*,*,#221,.T.);
#247 = ORIENTED_EDGE('',*,*,#248,.T.);
#248 = EDGE_CURVE('',#222,#198,#249,.T.);
#249 = LINE('',#250,#251);
#250 = CARTESIAN_POINT('',(1.17E+03,-650.,-9.));
#251 = VECTOR('',#252,1.);
#252 = DIRECTION('',(-1.,0.,0.));
#253 = PLANE('',#254);
#254 = AXIS2_PLACEMENT_3D('',#255,#256,#257);
#255 = CARTESIAN_POINT('',(1.048403853397E+03,-425.9435887028,-9.));
#256 = DIRECTION('',(-0.,-0.,-1.));
#257 = DIRECTION('',(-1.,0.,0.));
#258 = ADVANCED_FACE('',(#259),#284,.F.);
#259 = FACE_BOUND('',#260,.F.);
#260 = EDGE_LOOP('',(#261,#269,#270,#278));
#261 = ORIENTED_EDGE('',*,*,#262,.F.);
#262 = EDGE_CURVE('',#87,#263,#265,.T.);
#263 = VERTEX_POINT('',#264);
#264 = CARTESIAN_POINT('',(1.17E+03,650.,-9.));
#265 = LINE('',#266,#267);
#266 = CARTESIAN_POINT('',(1.2E+03,255.,-9.));
#267 = VECTOR('',#268,1.);
#268 = DIRECTION('',(-7.573126060644E-02,0.997128264652,0.));
#269 = ORIENTED_EDGE('',*,*,#84,.F.);
#270 = ORIENTED_EDGE('',*,*,#271,.T.);
#271 = EDGE_CURVE('',#85,#272,#274,.T.);
#272 = VERTEX_POINT('',#273);
#273 = CARTESIAN_POINT('',(1.17E+03,650.,9.));
#274 = LINE('',#275,#276);
#275 = CARTESIAN_POINT('',(1.2E+03,255.,9.));
#276 = VECTOR('',#277,1.);
#277 = DIRECTION('',(-7.573126060644E-02,0.997128264652,0.));
#278 = ORIENTED_EDGE('',*,*,#279,.F.);
#279 = EDGE_CURVE('',#263,#272,#280,.T.);
#280 = LINE('',#281,#282);
#281 = CARTESIAN_POINT('',(1.17E+03,650.,-9.));
#282 = VECTOR('',#283,1.);
#283 = DIRECTION('',(0.,0.,1.));
#284 = PLANE('',#285);
#285 = AXIS2_PLACEMENT_3D('',#286,#287,#288);
#286 = CARTESIAN_POINT('',(1.2E+03,255.,-9.));
#287 = DIRECTION('',(-0.997128264652,-7.573126060644E-02,0.));
#288 = DIRECTION('',(-7.573126060644E-02,0.997128264652,0.));
#289 = ADVANCED_FACE('',(#290),#308,.F.);
#290 = FACE_BOUND('',#291,.F.);
#291 = EDGE_LOOP('',(#292,#300,#301,#302));
#292 = ORIENTED_EDGE('',*,*,#293,.T.);
#293 = EDGE_CURVE('',#294,#104,#296,.T.);
#294 = VERTEX_POINT('',#295);
#295 = CARTESIAN_POINT('',(1.E+03,650.,-9.));
#296 = LINE('',#297,#298);
#297 = CARTESIAN_POINT('',(1.E+03,650.,-9.));
#298 = VECTOR('',#299,1.);
#299 = DIRECTION('',(-0.355010941409,-0.934862145709,0.));
#300 = ORIENTED_EDGE('',*,*,#112,.T.);
#301 = ORIENTED_EDGE('',*,*,#262,.T.);
#302 = ORIENTED_EDGE('',*,*,#303,.T.);
#303 = EDGE_CURVE('',#263,#294,#304,.T.);
#304 = LINE('',#305,#306);
#305 = CARTESIAN_POINT('',(1.17E+03,650.,-9.));
#306 = VECTOR('',#307,1.);
#307 = DIRECTION('',(-1.,0.,0.));
#308 = PLANE('',#309);
#309 = AXIS2_PLACEMENT_3D('',#310,#311,#312);
#310 = CARTESIAN_POINT('',(1.048403853397E+03,425.94358870284,-9.));
#311 = DIRECTION('',(0.,0.,1.));
#312 = DIRECTION('',(1.,0.,-0.));
#313 = ADVANCED_FACE('',(#314),#332,.F.);
#314 = FACE_BOUND('',#315,.F.);
#315 = EDGE_LOOP('',(#316,#317,#325,#331));
#316 = ORIENTED_EDGE('',*,*,#293,.F.);
#317 = ORIENTED_EDGE('',*,*,#318,.T.);
#318 = EDGE_CURVE('',#294,#319,#321,.T.);
#319 = VERTEX_POINT('',#320);
#320 = CARTESIAN_POINT('',(1.E+03,650.,9.));
#321 = LINE('',#322,#323);
#322 = CARTESIAN_POINT('',(1.E+03,650.,-9.));
#323 = VECTOR('',#324,1.);
#324 = DIRECTION('',(0.,0.,1.));
#325 = ORIENTED_EDGE('',*,*,#326,.T.);
#326 = EDGE_CURVE('',#319,#96,#327,.T.);
#327 = LINE('',#328,#329);
#328 = CARTESIAN_POINT('',(1.E+03,650.,9.));
#329 = VECTOR('',#330,1.);
#330 = DIRECTION('',(-0.355010941409,-0.934862145709,0.));
#331 = ORIENTED_EDGE('',*,*,#103,.F.);
#332 = PLANE('',#333);
#333 = AXIS2_PLACEMENT_3D('',#334,#335,#336);
#334 = CARTESIAN_POINT('',(1.E+03,650.,-9.));
#335 = DIRECTION('',(0.934862145709,-0.355010941409,0.));
#336 = DIRECTION('',(-0.355010941409,-0.934862145709,0.));
#337 = ADVANCED_FACE('',(#338),#349,.T.);
#338 = FACE_BOUND('',#339,.T.);
#339 = EDGE_LOOP('',(#340,#341,#342,#343));
#340 = ORIENTED_EDGE('',*,*,#326,.T.);
#341 = ORIENTED_EDGE('',*,*,#95,.T.);
#342 = ORIENTED_EDGE('',*,*,#271,.T.);
#343 = ORIENTED_EDGE('',*,*,#344,.T.);
#344 = EDGE_CURVE('',#272,#319,#345,.T.);
#345 = LINE('',#346,#347);
#346 = CARTESIAN_POINT('',(1.17E+03,650.,9.));
#347 = VECTOR('',#348,1.);
#348 = DIRECTION('',(-1.,0.,0.));
#349 = PLANE('',#350);
#350 = AXIS2_PLACEMENT_3D('',#351,#352,#353);
#351 = CARTESIAN_POINT('',(1.048403853397E+03,425.94358870284,9.));
#352 = DIRECTION('',(0.,0.,1.));
#353 = DIRECTION('',(1.,0.,-0.));
#354 = ADVANCED_FACE('',(#355),#374,.T.);
#355 = FACE_BOUND('',#356,.T.);
#356 = EDGE_LOOP('',(#357,#365,#372,#373));
#357 = ORIENTED_EDGE('',*,*,#358,.T.);
#358 = EDGE_CURVE('',#130,#359,#361,.T.);
#359 = VERTEX_POINT('',#360);
#360 = CARTESIAN_POINT('',(1.39E+03,150.,90.));
#361 = LINE('',#362,#363);
#362 = CARTESIAN_POINT('',(1.199E+03,150.,90.));
#363 = VECTOR('',#364,1.);
#364 = DIRECTION('',(1.,0.,0.));
#365 = ORIENTED_EDGE('',*,*,#366,.F.);
#366 = EDGE_CURVE('',#359,#359,#367,.T.);
#367 = CIRCLE('',#368,90.);
#368 = AXIS2_PLACEMENT_3D('',#369,#370,#371);
#369 = CARTESIAN_POINT('',(1.39E+03,150.,0.));
#370 = DIRECTION('',(1.,0.,0.));
#371 = DIRECTION('',(-0.,0.,1.));
#372 = ORIENTED_EDGE('',*,*,#358,.F.);
#373 = ORIENTED_EDGE('',*,*,#129,.T.);
#374 = CYLINDRICAL_SURFACE('',#375,90.);
#375 = AXIS2_PLACEMENT_3D('',#376,#377,#378);
#376 = CARTESIAN_POINT('',(1.199E+03,150.,0.));
#377 = DIRECTION('',(1.,0.,0.));
#378 = DIRECTION('',(-0.,0.,1.));
#379 = ADVANCED_FACE('',(#380),#399,.T.);
#380 = FACE_BOUND('',#381,.T.);
#381 = EDGE_LOOP('',(#382,#390,#397,#398));
#382 = ORIENTED_EDGE('',*,*,#383,.T.);
#383 = EDGE_CURVE('',#141,#384,#386,.T.);
#384 = VERTEX_POINT('',#385);
#385 = CARTESIAN_POINT('',(1.39E+03,-150.,90.));
#386 = LINE('',#387,#388);
#387 = CARTESIAN_POINT('',(1.199E+03,-150.,90.));
#388 = VECTOR('',#389,1.);
#389 = DIRECTION('',(1.,0.,0.));
#390 = ORIENTED_EDGE('',*,*,#391,.F.);
#391 = EDGE_CURVE('',#384,#384,#392,.T.);
#392 = CIRCLE('',#393,90.);
#393 = AXIS2_PLACEMENT_3D('',#394,#395,#396);
#394 = CARTESIAN_POINT('',(1.39E+03,-150.,0.));
#395 = DIRECTION('',(1.,0.,0.));
#396 = DIRECTION('',(-0.,0.,1.));
#397 = ORIENTED_EDGE('',*,*,#383,.F.);
#398 = ORIENTED_EDGE('',*,*,#140,.T.);
#399 = CYLINDRICAL_SURFACE('',#400,90.);
#400 = AXIS2_PLACEMENT_3D('',#401,#402,#403);
#401 = CARTESIAN_POINT('',(1.199E+03,-150.,0.));
#402 = DIRECTION('',(1.,0.,0.));
#403 = DIRECTION('',(-0.,0.,1.));
#404 = ADVANCED_FACE('',(#405),#411,.T.);
#405 = FACE_BOUND('',#406,.T.);
#406 = EDGE_LOOP('',(#407,#408,#409,#410));
#407 = ORIENTED_EDGE('',*,*,#231,.T.);
#408 = ORIENTED_EDGE('',*,*,#183,.T.);
#409 = ORIENTED_EDGE('',*,*,#205,.F.);
#410 = ORIENTED_EDGE('',*,*,#248,.F.);
#411 = PLANE('',#412);
#412 = AXIS2_PLACEMENT_3D('',#413,#414,#415);
#413 = CARTESIAN_POINT('',(1.17E+03,-650.,-9.));
#414 = DIRECTION('',(0.,-1.,0.));
#415 = DIRECTION('',(-1.,0.,0.));
#416 = ADVANCED_FACE('',(#417),#423,.F.);
#417 = FACE_BOUND('',#418,.F.);
#418 = EDGE_LOOP('',(#419,#420,#421,#422));
#419 = ORIENTED_EDGE('',*,*,#279,.T.);
#420 = ORIENTED_EDGE('',*,*,#344,.T.);
#421 = ORIENTED_EDGE('',*,*,#318,.F.);
#422 = ORIENTED_EDGE('',*,*,#303,.F.);
#423 = PLANE('',#424);
#424 = AXIS2_PLACEMENT_3D('',#425,#426,#427);
#425 = CARTESIAN_POINT('',(1.17E+03,650.,-9.));
#426 = DIRECTION('',(0.,-1.,0.));
#427 = DIRECTION('',(-1.,0.,0.));
#428 = ADVANCED_FACE('',(#429,#432),#443,.T.);
#429 = FACE_BOUND('',#430,.T.);
#430 = EDGE_LOOP('',(#431));
#431 = ORIENTED_EDGE('',*,*,#366,.T.);
#432 = FACE_BOUND('',#433,.T.);
#433 = EDGE_LOOP('',(#434));
#434 = ORIENTED_EDGE('',*,*,#435,.F.);
#435 = EDGE_CURVE('',#436,#436,#438,.T.);
#436 = VERTEX_POINT('',#437);
#437 = CARTESIAN_POINT('',(1.39E+03,150.,58.5));
#438 = CIRCLE('',#439,58.5);
#439 = AXIS2_PLACEMENT_3D('',#440,#441,#442);
#440 = CARTESIAN_POINT('',(1.39E+03,150.,0.));
#441 = DIRECTION('',(1.,0.,0.));
#442 = DIRECTION('',(-0.,0.,1.));
#443 = PLANE('',#444);
#444 = AXIS2_PLACEMENT_3D('',#445,#446,#447);
#445 = CARTESIAN_POINT('',(1.39E+03,150.,0.));
#446 = DIRECTION('',(1.,0.,0.));
#447 = DIRECTION('',(-0.,0.,1.));
#448 = ADVANCED_FACE('',(#449,#452),#463,.T.);
#449 = FACE_BOUND('',#450,.T.);
#450 = EDGE_LOOP('',(#451));
#451 = ORIENTED_EDGE('',*,*,#391,.T.);
#452 = FACE_BOUND('',#453,.T.);
#453 = EDGE_LOOP('',(#454));
#454 = ORIENTED_EDGE('',*,*,#455,.F.);
#455 = EDGE_CURVE('',#456,#456,#458,.T.);
#456 = VERTEX_POINT('',#457);
#457 = CARTESIAN_POINT('',(1.39E+03,-150.,58.5));
#458 = CIRCLE('',#459,58.5);
#459 = AXIS2_PLACEMENT_3D('',#460,#461,#462);
#460 = CARTESIAN_POINT('',(1.39E+03,-150.,0.));
#461 = DIRECTION('',(1.,0.,0.));
#462 = DIRECTION('',(-0.,0.,1.));
#463 = PLANE('',#464);
#464 = AXIS2_PLACEMENT_3D('',#465,#466,#467);
#465 = CARTESIAN_POINT('',(1.39E+03,-150.,0.));
#466 = DIRECTION('',(1.,0.,0.));
#467 = DIRECTION('',(-0.,0.,1.));
#468 = ADVANCED_FACE('',(#469),#488,.F.);
#469 = FACE_BOUND('',#470,.F.);
#470 = EDGE_LOOP('',(#471,#472,#480,#487));
#471 = ORIENTED_EDGE('',*,*,#435,.F.);
#472 = ORIENTED_EDGE('',*,*,#473,.F.);
#473 = EDGE_CURVE('',#474,#436,#476,.T.);
#474 = VERTEX_POINT('',#475);
#475 = CARTESIAN_POINT('',(1.2E+03,150.,58.5));
#476 = LINE('',#477,#478);
#477 = CARTESIAN_POINT('',(1.2E+03,150.,58.5));
#478 = VECTOR('',#479,1.);
#479 = DIRECTION('',(1.,0.,0.));
#480 = ORIENTED_EDGE('',*,*,#481,.T.);
#481 = EDGE_CURVE('',#474,#474,#482,.T.);
#482 = CIRCLE('',#483,58.5);
#483 = AXIS2_PLACEMENT_3D('',#484,#485,#486);
#484 = CARTESIAN_POINT('',(1.2E+03,150.,0.));
#485 = DIRECTION('',(1.,0.,0.));
#486 = DIRECTION('',(-0.,0.,1.));
#487 = ORIENTED_EDGE('',*,*,#473,.T.);
#488 = CYLINDRICAL_SURFACE('',#489,58.5);
#489 = AXIS2_PLACEMENT_3D('',#490,#491,#492);
#490 = CARTESIAN_POINT('',(1.2E+03,150.,0.));
#491 = DIRECTION('',(1.,0.,0.));
#492 = DIRECTION('',(-0.,0.,1.));
#493 = ADVANCED_FACE('',(#494),#513,.F.);
#494 = FACE_BOUND('',#495,.F.);
#495 = EDGE_LOOP('',(#496,#497,#505,#512));
#496 = ORIENTED_EDGE('',*,*,#455,.F.);
#497 = ORIENTED_EDGE('',*,*,#498,.F.);
#498 = EDGE_CURVE('',#499,#456,#501,.T.);
#499 = VERTEX_POINT('',#500);
#500 = CARTESIAN_POINT('',(1.2E+03,-150.,58.5));
#501 = LINE('',#502,#503);
#502 = CARTESIAN_POINT('',(1.2E+03,-150.,58.5));
#503 = VECTOR('',#504,1.);
#504 = DIRECTION('',(1.,0.,0.));
#505 = ORIENTED_EDGE('',*,*,#506,.T.);
#506 = EDGE_CURVE('',#499,#499,#507,.T.);
#507 = CIRCLE('',#508,58.5);
#508 = AXIS2_PLACEMENT_3D('',#509,#510,#511);
#509 = CARTESIAN_POINT('',(1.2E+03,-150.,0.));
#510 = DIRECTION('',(1.,0.,0.));
#511 = DIRECTION('',(-0.,0.,1.));
#512 = ORIENTED_EDGE('',*,*,#498,.T.);
#513 = CYLINDRICAL_SURFACE('',#514,58.5);
#514 = AXIS2_PLACEMENT_3D('',#515,#516,#517);
#515 = CARTESIAN_POINT('',(1.2E+03,-150.,0.));
#516 = DIRECTION('',(1.,0.,0.));
#517 = DIRECTION('',(-0.,0.,1.));
#518 = ADVANCED_FACE('',(#519),#522,.T.);
#519 = FACE_BOUND('',#520,.F.);
#520 = EDGE_LOOP('',(#521));
#521 = ORIENTED_EDGE('',*,*,#481,.F.);
#522 = PLANE('',#523);
#523 = AXIS2_PLACEMENT_3D('',#524,#525,#526);
#524 = CARTESIAN_POINT('',(1.2E+03,150.,0.));
#525 = DIRECTION('',(1.,0.,0.));
#526 = DIRECTION('',(-0.,0.,1.));
#527 = ADVANCED_FACE('',(#528),#531,.T.);
#528 = FACE_BOUND('',#529,.F.);
#529 = EDGE_LOOP('',(#530));
#530 = ORIENTED_EDGE('',*,*,#506,.F.);
#531 = PLANE('',#532);
#532 = AXIS2_PLACEMENT_3D('',#533,#534,#535);
#533 = CARTESIAN_POINT('',(1.2E+03,-150.,0.));
#534 = DIRECTION('',(1.,0.,0.));
#535 = DIRECTION('',(-0.,0.,1.));
#536 = ( GEOMETRIC_REPRESENTATION_CONTEXT(3) 
GLOBAL_UNCERTAINTY_ASSIGNED_CONTEXT((#540)) GLOBAL_UNIT_ASSIGNED_CONTEXT
((#537,#538,#539)) REPRESENTATION_CONTEXT('Context #1',
  '3D Context with UNIT and UNCERTAINTY') );
#537 = ( LENGTH_UNIT() NAMED_UNIT(*) SI_UNIT(.MILLI.,.METRE.) );
#538 = ( NAMED_UNIT(*) PLANE_ANGLE_UNIT() SI_UNIT($,.RADIAN.) );
#539 = ( NAMED_UNIT(*) SI_UNIT($,.STERADIAN.) SOLID_ANGLE_UNIT() );
#540 = UNCERTAINTY_MEASURE_WITH_UNIT(LENGTH_MEASURE(1.E-07),#537,
  'distance_accuracy_value','confusion accuracy');
#541 = PRODUCT_RELATED_PRODUCT_CATEGORY('part',$,(#7));
ENDSEC;
END-ISO-10303-21;
